<svg xmlns="http://www.w3.org/2000/svg" xmlns:xlink="http://www.w3.org/1999/xlink" viewBox="0 0 100 125" version="1.1" x="0px" y="0px"><g stroke="none" stroke-width="1" fill="none" fill-rule="evenodd"><g fill-rule="nonzero" fill="#000000"><path d="M62,45.6018835 L50.7210418,34.8356053 C50.3292707,34.4616419 49.6771786,34.4554858 49.2789582,34.8356053 L38,45.6018835 L38,66.0003698 C38,66.5573997 38.4480262,67 39.0006946,67 L60.9993054,67 C61.5525308,67 62,66.5524503 62,66.0003698 L62,45.6018835 Z M68,51.305994 L68,70.0038671 C68,71.6636119 66.6535323,73 64.9925801,73 L35.0074199,73 C33.3455393,73 32,71.6585856 32,70.0038671 L32,51.3059547 C30.8017451,52.2294206 29.0695641,52.1204957 28,51 C26.8583102,49.803944 26.8992138,47.9034124 28.0965602,46.7604909 L47.8320126,27.9221044 C49.0265581,26.7818564 50.970641,26.7791829 52.1679874,27.9221044 L71.9034398,46.7604909 C73.0979853,47.9007388 73.1440177,49.8015053 72,51 C70.9324596,52.1183757 69.2005399,52.2315399 68,51.305994 Z"/></g></g></svg>